<mxfile host="Electron" agent="Mozilla/5.0 (Windows NT 10.0; Win64; x64) AppleWebKit/537.36 (KHTML, like Gecko) draw.io/28.1.2 Chrome/138.0.7204.243 Electron/37.4.0 Safari/537.36" version="28.1.2">
  <diagram name="Page-1" id="Gumlhk3xKF0sL7-S7Mnc">
    <mxGraphModel dx="1452" dy="867" grid="1" gridSize="10" guides="1" tooltips="1" connect="1" arrows="1" fold="1" page="1" pageScale="1" pageWidth="850" pageHeight="1100" math="0" shadow="0">
      <root>
        <mxCell id="0" />
        <mxCell id="1" parent="0" />
        <mxCell id="TtUYjXkTmSQ2YNAaYddq-11" value="Cloud" style="shape=mxgraph.ibm.box;prType=vpc;fontStyle=0;verticalAlign=top;align=left;spacingLeft=32;spacingTop=4;fillColor=none;rounded=0;whiteSpace=wrap;html=1;strokeColor=#4376BB;strokeWidth=2;dashed=0;container=1;spacing=-4;collapsible=0;expand=0;recursiveResize=0;" parent="1" vertex="1">
          <mxGeometry x="40" y="40" width="410" height="270" as="geometry" />
        </mxCell>
        <mxCell id="TtUYjXkTmSQ2YNAaYddq-12" value="ACE container" style="swimlane;whiteSpace=wrap;html=1;fillColor=#eeeeee;strokeColor=light-dark(#36393D,#FFFFFF);fontColor=light-dark(#000000,#000000);" parent="TtUYjXkTmSQ2YNAaYddq-11" vertex="1">
          <mxGeometry x="20" y="30" width="300" height="230" as="geometry" />
        </mxCell>
        <mxCell id="TtUYjXkTmSQ2YNAaYddq-18" value="&lt;font style=&quot;font-size: 18px;&quot;&gt;App using MQ&lt;/font&gt;" style="rounded=1;whiteSpace=wrap;html=1;fillColor=#fff2cc;strokeColor=#d6b656;fontColor=light-dark(#000000,#000000);" parent="TtUYjXkTmSQ2YNAaYddq-12" vertex="1">
          <mxGeometry x="10" y="45" width="110" height="50" as="geometry" />
        </mxCell>
        <mxCell id="TtUYjXkTmSQ2YNAaYddq-25" style="edgeStyle=orthogonalEdgeStyle;rounded=0;orthogonalLoop=1;jettySize=auto;html=1;entryX=0.5;entryY=1;entryDx=0;entryDy=0;" parent="TtUYjXkTmSQ2YNAaYddq-12" source="TtUYjXkTmSQ2YNAaYddq-6" target="TtUYjXkTmSQ2YNAaYddq-18" edge="1">
          <mxGeometry relative="1" as="geometry" />
        </mxCell>
        <mxCell id="TtUYjXkTmSQ2YNAaYddq-6" value="&lt;font style=&quot;color: light-dark(rgb(0, 0, 0), rgb(0, 0, 0));&quot;&gt;ACE MQ Keystore&lt;/font&gt;" style="swimlane;fontStyle=0;childLayout=stackLayout;horizontal=1;startSize=30;horizontalStack=0;resizeParent=1;resizeParentMax=0;resizeLast=0;collapsible=1;marginBottom=0;whiteSpace=wrap;html=1;fontSize=11;fillColor=#ffe6cc;strokeColor=#d79b00;" parent="TtUYjXkTmSQ2YNAaYddq-12" vertex="1">
          <mxGeometry x="10" y="135" width="110" height="90" as="geometry" />
        </mxCell>
        <mxCell id="TtUYjXkTmSQ2YNAaYddq-7" value="&lt;span&gt;&lt;font style=&quot;color: light-dark(rgb(0, 0, 255), rgb(56, 188, 255));&quot;&gt;ACE key+certificate&lt;/font&gt;&lt;/span&gt;" style="text;align=left;verticalAlign=middle;spacingLeft=4;spacingRight=4;overflow=hidden;points=[[0,0.5],[1,0.5]];portConstraint=eastwest;rotatable=0;whiteSpace=wrap;html=1;fontSize=11;" parent="TtUYjXkTmSQ2YNAaYddq-6" vertex="1">
          <mxGeometry y="30" width="110" height="20" as="geometry" />
        </mxCell>
        <mxCell id="TtUYjXkTmSQ2YNAaYddq-8" value="&lt;font style=&quot;color: light-dark(rgb(0, 0, 255), rgb(56, 188, 255));&quot;&gt;CA1 certificate&lt;span style=&quot;white-space: pre;&quot;&gt;&#x9;&lt;/span&gt;&lt;/font&gt;" style="text;align=left;verticalAlign=middle;spacingLeft=4;spacingRight=4;overflow=hidden;points=[[0,0.5],[1,0.5]];portConstraint=eastwest;rotatable=0;whiteSpace=wrap;html=1;fontSize=11;" parent="TtUYjXkTmSQ2YNAaYddq-6" vertex="1">
          <mxGeometry y="50" width="110" height="20" as="geometry" />
        </mxCell>
        <mxCell id="TtUYjXkTmSQ2YNAaYddq-9" value="&lt;font style=&quot;color: light-dark(rgb(0, 128, 0), rgb(110, 255, 110));&quot;&gt;CA2 certificate&lt;/font&gt;" style="text;align=left;verticalAlign=middle;spacingLeft=4;spacingRight=4;overflow=hidden;points=[[0,0.5],[1,0.5]];portConstraint=eastwest;rotatable=0;whiteSpace=wrap;html=1;fontSize=11;" parent="TtUYjXkTmSQ2YNAaYddq-6" vertex="1">
          <mxGeometry y="70" width="110" height="20" as="geometry" />
        </mxCell>
        <mxCell id="TtUYjXkTmSQ2YNAaYddq-30" style="edgeStyle=orthogonalEdgeStyle;rounded=0;orthogonalLoop=1;jettySize=auto;html=1;entryX=0.5;entryY=1;entryDx=0;entryDy=0;fontColor=light-dark(#000000,#000000);" parent="TtUYjXkTmSQ2YNAaYddq-12" source="TtUYjXkTmSQ2YNAaYddq-21" target="TtUYjXkTmSQ2YNAaYddq-29" edge="1">
          <mxGeometry relative="1" as="geometry" />
        </mxCell>
        <mxCell id="TtUYjXkTmSQ2YNAaYddq-21" value="&lt;font style=&quot;color: light-dark(rgb(0, 0, 0), rgb(0, 0, 0));&quot;&gt;Switch Client Config&lt;/font&gt;" style="swimlane;fontStyle=0;childLayout=stackLayout;horizontal=1;startSize=30;horizontalStack=0;resizeParent=1;resizeParentMax=0;resizeLast=0;collapsible=1;marginBottom=0;whiteSpace=wrap;html=1;fontSize=11;fillColor=#f8cecc;strokeColor=#b85450;" parent="TtUYjXkTmSQ2YNAaYddq-12" vertex="1">
          <mxGeometry x="170" y="135" width="120" height="90" as="geometry">
            <mxRectangle x="160" y="30" width="140" height="30" as="alternateBounds" />
          </mxGeometry>
        </mxCell>
        <mxCell id="TtUYjXkTmSQ2YNAaYddq-22" value="&lt;font style=&quot;color: light-dark(rgb(204, 102, 0), rgb(255, 150, 46));&quot;&gt;Client key+certificate&lt;/font&gt;" style="text;align=left;verticalAlign=middle;spacingLeft=4;spacingRight=4;overflow=hidden;points=[[0,0.5],[1,0.5]];portConstraint=eastwest;rotatable=0;whiteSpace=wrap;html=1;fontSize=11;" parent="TtUYjXkTmSQ2YNAaYddq-21" vertex="1">
          <mxGeometry y="30" width="120" height="20" as="geometry" />
        </mxCell>
        <mxCell id="TtUYjXkTmSQ2YNAaYddq-24" value="&lt;font style=&quot;color: rgb(255, 0, 255);&quot;&gt;Switch CA certificate&lt;/font&gt;" style="text;align=left;verticalAlign=middle;spacingLeft=4;spacingRight=4;overflow=hidden;points=[[0,0.5],[1,0.5]];portConstraint=eastwest;rotatable=0;whiteSpace=wrap;html=1;fontSize=11;" parent="TtUYjXkTmSQ2YNAaYddq-21" vertex="1">
          <mxGeometry y="50" width="120" height="20" as="geometry" />
        </mxCell>
        <mxCell id="TtUYjXkTmSQ2YNAaYddq-28" value="&lt;font style=&quot;color: light-dark(rgb(204, 102, 0), rgb(255, 150, 46));&quot;&gt;Server host/port&lt;/font&gt;" style="text;align=left;verticalAlign=middle;spacingLeft=4;spacingRight=4;overflow=hidden;points=[[0,0.5],[1,0.5]];portConstraint=eastwest;rotatable=0;whiteSpace=wrap;html=1;fontSize=11;" parent="TtUYjXkTmSQ2YNAaYddq-21" vertex="1">
          <mxGeometry y="70" width="120" height="20" as="geometry" />
        </mxCell>
        <mxCell id="TtUYjXkTmSQ2YNAaYddq-29" value="Switch Client&lt;div&gt;&lt;br&gt;&lt;/div&gt;&lt;div&gt;&lt;br&gt;&lt;/div&gt;&lt;div&gt;&lt;br&gt;&lt;/div&gt;&lt;div&gt;&lt;br&gt;&lt;/div&gt;" style="rounded=1;whiteSpace=wrap;html=1;fillColor=#d5e8d4;strokeColor=#82b366;fontColor=light-dark(#000000,#000000);" parent="TtUYjXkTmSQ2YNAaYddq-12" vertex="1">
          <mxGeometry x="185" y="30" width="90" height="80" as="geometry" />
        </mxCell>
        <mxCell id="TtUYjXkTmSQ2YNAaYddq-82" value="&lt;font style=&quot;font-size: 10px;&quot;&gt;localhost&lt;/font&gt;&lt;div&gt;&lt;span style=&quot;font-size: 10px;&quot;&gt;23456&lt;/span&gt;&lt;/div&gt;" style="text;html=1;align=center;verticalAlign=middle;whiteSpace=wrap;rounded=0;" parent="TtUYjXkTmSQ2YNAaYddq-12" vertex="1">
          <mxGeometry x="116" y="70" width="60" height="30" as="geometry" />
        </mxCell>
        <mxCell id="TtUYjXkTmSQ2YNAaYddq-52" value="Switch Server&lt;div&gt;&lt;br&gt;&lt;/div&gt;&lt;div&gt;&lt;br&gt;&lt;/div&gt;&lt;div&gt;&lt;br&gt;&lt;/div&gt;&lt;div&gt;&lt;br&gt;&lt;/div&gt;&lt;div&gt;&lt;br&gt;&lt;/div&gt;&lt;div&gt;&lt;br&gt;&lt;/div&gt;&lt;div&gt;&lt;br&gt;&lt;/div&gt;&lt;div&gt;&lt;br&gt;&lt;/div&gt;" style="rounded=0;whiteSpace=wrap;html=1;labelPosition=center;verticalLabelPosition=middle;align=center;verticalAlign=middle;fillColor=#d5e8d4;strokeColor=#82b366;fontColor=light-dark(#000000,#000000);" parent="TtUYjXkTmSQ2YNAaYddq-11" vertex="1">
          <mxGeometry x="360" y="30" width="50" height="150" as="geometry" />
        </mxCell>
        <mxCell id="TtUYjXkTmSQ2YNAaYddq-56" value="On-prem" style="shape=mxgraph.ibm.box;prType=classic;fontStyle=0;verticalAlign=top;align=left;spacingLeft=32;spacingTop=4;fillColor=none;rounded=0;whiteSpace=wrap;html=1;strokeColor=#008000;strokeWidth=2;dashed=0;container=1;spacing=-4;collapsible=0;expand=0;recursiveResize=0;" parent="1" vertex="1">
          <mxGeometry x="520" y="40" width="260" height="270" as="geometry" />
        </mxCell>
        <mxCell id="TtUYjXkTmSQ2YNAaYddq-57" value="&lt;div&gt;Secure Agent&lt;/div&gt;&lt;div&gt;&lt;br&gt;&lt;/div&gt;&lt;div&gt;&lt;br&gt;&lt;/div&gt;&lt;div&gt;&lt;br&gt;&lt;/div&gt;&lt;div&gt;&lt;br&gt;&lt;/div&gt;" style="rounded=0;whiteSpace=wrap;html=1;labelPosition=center;verticalLabelPosition=middle;align=center;verticalAlign=middle;fillColor=#d5e8d4;strokeColor=#82b366;fontColor=light-dark(#000000,#000000);" parent="TtUYjXkTmSQ2YNAaYddq-56" vertex="1">
          <mxGeometry y="30" width="50" height="110" as="geometry" />
        </mxCell>
        <mxCell id="TtUYjXkTmSQ2YNAaYddq-79" style="edgeStyle=orthogonalEdgeStyle;rounded=0;orthogonalLoop=1;jettySize=auto;html=1;entryX=0.5;entryY=1;entryDx=0;entryDy=0;" parent="TtUYjXkTmSQ2YNAaYddq-56" source="TtUYjXkTmSQ2YNAaYddq-66" target="TtUYjXkTmSQ2YNAaYddq-57" edge="1">
          <mxGeometry relative="1" as="geometry">
            <Array as="points">
              <mxPoint x="70" y="160" />
              <mxPoint x="25" y="160" />
            </Array>
          </mxGeometry>
        </mxCell>
        <mxCell id="TtUYjXkTmSQ2YNAaYddq-66" value="&lt;font style=&quot;color: light-dark(rgb(0, 0, 0), rgb(0, 0, 0));&quot;&gt;Secure Agent Config&lt;/font&gt;" style="swimlane;fontStyle=0;childLayout=stackLayout;horizontal=1;startSize=30;horizontalStack=0;resizeParent=1;resizeParentMax=0;resizeLast=0;collapsible=1;marginBottom=0;whiteSpace=wrap;html=1;fontSize=11;fillColor=#f8cecc;strokeColor=#b85450;" parent="TtUYjXkTmSQ2YNAaYddq-56" vertex="1">
          <mxGeometry x="10" y="170" width="120" height="90" as="geometry">
            <mxRectangle x="160" y="30" width="140" height="30" as="alternateBounds" />
          </mxGeometry>
        </mxCell>
        <mxCell id="TtUYjXkTmSQ2YNAaYddq-67" value="&lt;font style=&quot;color: light-dark(rgb(204, 102, 0), rgb(255, 150, 46));&quot;&gt;Client key+certificate&lt;/font&gt;" style="text;align=left;verticalAlign=middle;spacingLeft=4;spacingRight=4;overflow=hidden;points=[[0,0.5],[1,0.5]];portConstraint=eastwest;rotatable=0;whiteSpace=wrap;html=1;fontSize=11;" parent="TtUYjXkTmSQ2YNAaYddq-66" vertex="1">
          <mxGeometry y="30" width="120" height="20" as="geometry" />
        </mxCell>
        <mxCell id="TtUYjXkTmSQ2YNAaYddq-68" value="&lt;font style=&quot;color: rgb(255, 0, 255);&quot;&gt;Switch CA certificate&lt;/font&gt;" style="text;align=left;verticalAlign=middle;spacingLeft=4;spacingRight=4;overflow=hidden;points=[[0,0.5],[1,0.5]];portConstraint=eastwest;rotatable=0;whiteSpace=wrap;html=1;fontSize=11;" parent="TtUYjXkTmSQ2YNAaYddq-66" vertex="1">
          <mxGeometry y="50" width="120" height="20" as="geometry" />
        </mxCell>
        <mxCell id="TtUYjXkTmSQ2YNAaYddq-69" value="&lt;font style=&quot;color: light-dark(rgb(204, 102, 0), rgb(255, 150, 46));&quot;&gt;Server host/port&lt;/font&gt;" style="text;align=left;verticalAlign=middle;spacingLeft=4;spacingRight=4;overflow=hidden;points=[[0,0.5],[1,0.5]];portConstraint=eastwest;rotatable=0;whiteSpace=wrap;html=1;fontSize=11;" parent="TtUYjXkTmSQ2YNAaYddq-66" vertex="1">
          <mxGeometry y="70" width="120" height="20" as="geometry" />
        </mxCell>
        <mxCell id="TtUYjXkTmSQ2YNAaYddq-59" value="&lt;font style=&quot;font-size: 18px;&quot;&gt;MQ queue manager&lt;/font&gt;" style="rounded=1;whiteSpace=wrap;html=1;fillColor=#dae8fc;strokeColor=#6c8ebf;fontColor=light-dark(#000000,#000000);" parent="TtUYjXkTmSQ2YNAaYddq-56" vertex="1">
          <mxGeometry x="140" y="80" width="110" height="50" as="geometry" />
        </mxCell>
        <mxCell id="TtUYjXkTmSQ2YNAaYddq-60" style="edgeStyle=orthogonalEdgeStyle;rounded=0;orthogonalLoop=1;jettySize=auto;html=1;entryX=0.5;entryY=1;entryDx=0;entryDy=0;fontColor=light-dark(#000000,#000000);" parent="TtUYjXkTmSQ2YNAaYddq-56" source="TtUYjXkTmSQ2YNAaYddq-61" target="TtUYjXkTmSQ2YNAaYddq-59" edge="1">
          <mxGeometry relative="1" as="geometry" />
        </mxCell>
        <mxCell id="TtUYjXkTmSQ2YNAaYddq-61" value="&lt;font style=&quot;color: light-dark(rgb(0, 0, 0), rgb(0, 0, 0));&quot;&gt;MQ QM Keystore&lt;/font&gt;" style="swimlane;fontStyle=0;childLayout=stackLayout;horizontal=1;startSize=30;horizontalStack=0;resizeParent=1;resizeParentMax=0;resizeLast=0;collapsible=1;marginBottom=0;whiteSpace=wrap;html=1;fontSize=11;fillColor=#ffe6cc;strokeColor=#d79b00;" parent="TtUYjXkTmSQ2YNAaYddq-56" vertex="1">
          <mxGeometry x="140" y="170" width="110" height="90" as="geometry" />
        </mxCell>
        <mxCell id="TtUYjXkTmSQ2YNAaYddq-62" value="&lt;span&gt;&lt;font style=&quot;color: light-dark(rgb(0, 128, 0), rgb(110, 255, 110));&quot;&gt;QM key+certificate&lt;/font&gt;&lt;/span&gt;" style="text;align=left;verticalAlign=middle;spacingLeft=4;spacingRight=4;overflow=hidden;points=[[0,0.5],[1,0.5]];portConstraint=eastwest;rotatable=0;whiteSpace=wrap;html=1;fontSize=11;" parent="TtUYjXkTmSQ2YNAaYddq-61" vertex="1">
          <mxGeometry y="30" width="110" height="20" as="geometry" />
        </mxCell>
        <mxCell id="TtUYjXkTmSQ2YNAaYddq-63" value="&lt;font style=&quot;color: light-dark(rgb(0, 128, 0), rgb(110, 255, 110));&quot;&gt;CA2 certificate&lt;span style=&quot;white-space: pre;&quot;&gt;&#x9;&lt;/span&gt;&lt;/font&gt;" style="text;align=left;verticalAlign=middle;spacingLeft=4;spacingRight=4;overflow=hidden;points=[[0,0.5],[1,0.5]];portConstraint=eastwest;rotatable=0;whiteSpace=wrap;html=1;fontSize=11;" parent="TtUYjXkTmSQ2YNAaYddq-61" vertex="1">
          <mxGeometry y="50" width="110" height="20" as="geometry" />
        </mxCell>
        <mxCell id="TtUYjXkTmSQ2YNAaYddq-64" value="&lt;font style=&quot;color: light-dark(rgb(0, 0, 255), rgb(56, 188, 255));&quot;&gt;CA1 certificate&lt;/font&gt;" style="text;align=left;verticalAlign=middle;spacingLeft=4;spacingRight=4;overflow=hidden;points=[[0,0.5],[1,0.5]];portConstraint=eastwest;rotatable=0;whiteSpace=wrap;html=1;fontSize=11;" parent="TtUYjXkTmSQ2YNAaYddq-61" vertex="1">
          <mxGeometry y="70" width="110" height="20" as="geometry" />
        </mxCell>
        <mxCell id="TtUYjXkTmSQ2YNAaYddq-83" value="&lt;span style=&quot;font-size: 10px;&quot;&gt;mqhost&lt;/span&gt;&lt;div&gt;&lt;span style=&quot;font-size: 10px;&quot;&gt;1414&lt;/span&gt;&lt;/div&gt;" style="text;html=1;align=center;verticalAlign=middle;whiteSpace=wrap;rounded=0;" parent="TtUYjXkTmSQ2YNAaYddq-56" vertex="1">
          <mxGeometry x="60" y="100" width="60" height="30" as="geometry" />
        </mxCell>
        <mxCell id="TtUYjXkTmSQ2YNAaYddq-89" value="" style="shape=process;whiteSpace=wrap;html=1;backgroundOutline=1;fillColor=#e1d5e7;strokeColor=#9673a6;fontColor=light-dark(#000000,#000000);" parent="TtUYjXkTmSQ2YNAaYddq-56" vertex="1">
          <mxGeometry x="-80" y="70" width="90" height="60" as="geometry" />
        </mxCell>
        <mxCell id="TtUYjXkTmSQ2YNAaYddq-91" value="" style="shape=process;whiteSpace=wrap;html=1;backgroundOutline=1;fillColor=#e1d5e7;strokeColor=#9673a6;fontColor=light-dark(#000000,#000000);" parent="1" vertex="1">
          <mxGeometry x="327" y="110" width="80" height="60" as="geometry" />
        </mxCell>
        <mxCell id="TtUYjXkTmSQ2YNAaYddq-3" value="&lt;div style=&quot;line-height: 190%;&quot;&gt;&lt;div&gt;&amp;nbsp; &amp;nbsp; &amp;nbsp; &amp;nbsp; &amp;nbsp; Tunnel&lt;div&gt;&lt;/div&gt;&lt;/div&gt;&lt;div&gt;&lt;br&gt;&lt;/div&gt;&lt;div style=&quot;line-height: 250%;&quot;&gt;&lt;/div&gt;&lt;/div&gt;" style="shape=process;whiteSpace=wrap;html=1;backgroundOutline=1;size=0.030303030303030304;fillColor=#dae8fc;gradientColor=#7ea6e0;strokeColor=#6c8ebf;fontColor=light-dark(#000000,#000000);" parent="1" vertex="1">
          <mxGeometry x="230" y="120" width="350" height="40" as="geometry" />
        </mxCell>
        <mxCell id="TtUYjXkTmSQ2YNAaYddq-72" style="edgeStyle=orthogonalEdgeStyle;rounded=0;orthogonalLoop=1;jettySize=auto;html=1;strokeColor=#0000FF;strokeWidth=5;entryX=0;entryY=0.396;entryDx=0;entryDy=0;entryPerimeter=0;" parent="1" target="TtUYjXkTmSQ2YNAaYddq-59" edge="1">
          <mxGeometry relative="1" as="geometry">
            <mxPoint x="640" y="140" as="targetPoint" />
            <mxPoint x="180" y="140" as="sourcePoint" />
          </mxGeometry>
        </mxCell>
      </root>
    </mxGraphModel>
  </diagram>
</mxfile>
